<?xml version="1.0" standalone="no"?><!DOCTYPE svg PUBLIC "-//W3C//DTD SVG 1.1//EN" "http://www.w3.org/Graphics/SVG/1.1/DTD/svg11.dtd"><svg t="1700659289575" class="icon" viewBox="0 0 1030 1024" version="1.1" xmlns="http://www.w3.org/2000/svg" p-id="16450" xmlns:xlink="http://www.w3.org/1999/xlink" width="201.171875" height="200"><path d="M594.109152 616.463476C699.862301 562.297229 771.224181 454.824517 771.224181 326.717045c0-179.694374-142.723762-324.137699-318.979009-324.137699S132.406381 147.02267 132.406381 326.717045c0 128.107473 73.941226 235.580185 177.115029 289.746432C142.723762 673.209068 17.195634 825.390428 0 1009.383711l56.745592 0C78.240134 815.93283 233.00084 662.891688 429.890848 650.854744c7.738035 0 17.195634-2.579345 24.933669-2.579345s17.195634 2.579345 24.933669 2.579345c194.310663 12.036944 351.650714 164.218304 373.145256 358.528967l56.745592 0C887.29471 825.390428 761.766583 673.209068 594.109152 616.463476zM452.245172 607.005877c-152.18136 0-275.130143-125.528128-275.130143-277.709488 0-154.760705 122.948783-277.709488 275.130143-277.709488s275.130143 125.528128 275.130143 277.709488C724.79597 481.47775 601.847187 607.005877 452.245172 607.005877z" fill="#272636" p-id="16451"></path><path d="M803.036104 122.948783l226.122586 0 0 49.007557-226.122586 0 0-49.007557Z" p-id="16452"></path><path d="M837.427372 280.288833l191.731318 0 0 49.007557-191.731318 0 0-49.007557Z" p-id="16453"></path><path d="M803.036104 437.628883l226.122586 0 0 49.007557-226.122586 0 0-49.007557Z" p-id="16454"></path></svg>