<?xml version="1.0" standalone="no"?><!DOCTYPE svg PUBLIC "-//W3C//DTD SVG 1.1//EN" "http://www.w3.org/Graphics/SVG/1.1/DTD/svg11.dtd"><svg t="1700659028190" class="icon" viewBox="0 0 1024 1024" version="1.1" xmlns="http://www.w3.org/2000/svg" p-id="12308" xmlns:xlink="http://www.w3.org/1999/xlink" width="200" height="200"><path d="M352.3 503.7m-41.8 0a41.8 41.8 0 1 0 83.6 0 41.8 41.8 0 1 0-83.6 0Z" p-id="12309"></path><path d="M519.4 503.7m-41.8 0a41.8 41.8 0 1 0 83.6 0 41.8 41.8 0 1 0-83.6 0Z" p-id="12310"></path><path d="M686.4 503.7m-41.8 0a41.8 41.8 0 1 0 83.6 0 41.8 41.8 0 1 0-83.6 0Z" p-id="12311"></path><path d="M512.4 879.6c-5.4 0-10.8-0.1-16.2-0.3-1.5 0.2-3.1 0.3-4.6 0.3H115.7c-13.1 0-25.4-6.1-33.3-16.6s-10.4-24-6.8-36.6l44.2-155C89.8 619.5 74 562 74 503.8 74 296.6 270.7 128 512.5 128S951 296.6 951 503.8 754.2 879.6 512.4 879.6z m-20.8-84h1.2c6.5 0.2 13.1 0.4 19.6 0.4 195.7 0 355-131.1 355-292.3s-159.2-292.3-355-292.3-355 131.1-355 292.3c0 48.2 14.7 96.1 42.4 138.5 6.6 10.1 8.6 22.7 5.2 34.3L171 796h314.8c1.9-0.2 3.8-0.4 5.8-0.4z" fill="#040000" p-id="12312"></path></svg>